<svg xmlns="http://www.w3.org/2000/svg" width="64.4" height="52.6" viewBox="0 0 64.4 52.6"><path d="M23.8-150.6a12.7,12.7,0,0,1,9.2,3.7,11.976,11.976,0,0,1,3.8,8.9,18.124,18.124,0,0,1-.7,4.9,44.885,44.885,0,0,1-2.7,6.7L20-98H8l8-30a12.158,12.158,0,0,1-5.2-10,11.831,11.831,0,0,1,3.9-8.9A12.806,12.806,0,0,1,23.8-150.6Zm35.6,0a12.7,12.7,0,0,1,9.2,3.7,11.976,11.976,0,0,1,3.8,8.9,18.124,18.124,0,0,1-.7,4.9,44.885,44.885,0,0,1-2.7,6.7L55.6-98h-12l8-30a12.158,12.158,0,0,1-5.2-10,11.831,11.831,0,0,1,3.9-8.9A12.806,12.806,0,0,1,59.4-150.6Z" transform="translate(72.4 -98) rotate(180)" fill="#f84c4b"/></svg>